<svg xmlns="http://www.w3.org/2000/svg" xmlns:xlink="http://www.w3.org/1999/xlink" version="1.1" width="256" height="256" viewBox="0 0 256 256" xml:space="preserve">
<desc>Created with Fabric.js 1.7.22</desc>
<defs>
</defs>
<g transform="translate(128 128) scale(0.72 0.72)" style="">
	<g style="stroke: none; stroke-width: 0; stroke-dasharray: none; stroke-linecap: butt; stroke-linejoin: miter; stroke-miterlimit: 10; fill: none; fill-rule: nonzero; opacity: 1;" transform="translate(-175.05 -175.05000000000004) scale(3.89 3.89)" >
	<path d="M 45.474 87.304 c -9.827 0.001 -19.324 -1.904 -26.726 -5.79 c -0.978 -0.513 -1.354 -1.722 -0.841 -2.7 c 0.514 -0.979 1.723 -1.355 2.701 -0.841 c 15.145 7.951 39.772 6.976 56.445 -2.148 c 8.225 -25.716 4.398 -52.4 -10.033 -70.007 l -9.514 -1.635 l -5.683 7.896 c -0.943 1.199 -0.798 1.815 -0.751 2.018 c 0.506 2.137 5.473 4.466 9.099 6.167 c 5.268 2.471 10.243 4.805 8.679 8.801 l -8.479 22.729 c -0.237 0.636 -0.781 1.108 -1.444 1.254 c -0.659 0.146 -1.354 -0.054 -1.837 -0.531 c -1.971 -1.951 -4.318 -3.374 -6.979 -4.229 c -7.476 -2.405 -15.719 0.487 -20.043 7.029 c -0.609 0.92 -1.851 1.174 -2.771 0.564 c -0.921 -0.608 -1.174 -1.85 -0.565 -2.771 c 5.311 -8.031 15.427 -11.581 24.605 -8.63 c 2.294 0.737 4.4 1.82 6.29 3.23 l 7.456 -19.985 c -0.555 -1 -4.327 -2.77 -6.608 -3.84 c -5.085 -2.385 -10.344 -4.852 -11.293 -8.869 c -0.423 -1.791 0.065 -3.589 1.45 -5.345 l 6.359 -8.84 c 0.446 -0.62 1.208 -0.932 1.962 -0.803 L 68.425 2 c 0.465 0.08 0.887 0.322 1.191 0.683 c 15.84 18.818 20.054 47.607 10.996 75.13 c -0.155 0.472 -0.479 0.869 -0.912 1.114 C 69.948 84.466 57.466 87.304 45.474 87.304 z M 65.113 27.637 c 0 0 0 0.001 0 0.001 V 27.637 z" style="stroke: none; stroke-width: 1; stroke-dasharray: none; stroke-linecap: butt; stroke-linejoin: miter; stroke-miterlimit: 10; fill: rgb(0,0,0); fill-rule: nonzero; opacity: 1;" transform=" matrix(1 0 0 1 0 0) " stroke-linecap="round" />
	<path d="M 6.68 90 c -0.442 0 -0.877 -0.146 -1.233 -0.425 C 4.963 89.196 4.68 88.615 4.68 88 l 0 -46.313 c 0 -0.744 0.413 -1.426 1.071 -1.771 c 4.944 -2.595 10.596 -3.083 15.909 -1.373 c 5.391 1.732 9.732 5.487 12.224 10.573 c 0.486 0.992 0.076 2.189 -0.916 2.676 c -0.993 0.485 -2.19 0.077 -2.676 -0.916 c -2.009 -4.101 -5.509 -7.128 -9.855 -8.525 c -3.907 -1.257 -8.038 -1.041 -11.756 0.591 l 0 42.362 c 3.841 -1.405 6.744 -3.695 8.83 -6.951 c 0.596 -0.929 1.833 -1.203 2.763 -0.604 c 0.93 0.596 1.201 1.832 0.605 2.763 c -3.049 4.759 -7.664 7.932 -13.718 9.429 C 7.001 89.98 6.84 90 6.68 90 z" style="stroke: none; stroke-width: 1; stroke-dasharray: none; stroke-linecap: butt; stroke-linejoin: miter; stroke-miterlimit: 10; fill: rgb(0,0,0); fill-rule: nonzero; opacity: 1;" transform=" matrix(1 0 0 1 0 0) " stroke-linecap="round" />
</g>
</g>
</svg>