<?xml version="1.0" encoding="UTF-8" standalone="no"?>
<!-- Generator: Adobe Illustrator 19.0.0, SVG Export Plug-In . SVG Version: 6.00 Build 0)  -->

<svg
   version="1.1"
   id="Capa_1"
   x="0px"
   y="0px"
   viewBox="0 0 384.97 384.97"
   style="enable-background:new 0 0 384.97 384.97;"
   xml:space="preserve"
   sodipodi:docname="fullscreen-svgrepo-com.svg"
   inkscape:version="1.2 (1:1.2.1+202207142221+cd75a1ee6d)"
   xmlns:inkscape="http://www.inkscape.org/namespaces/inkscape"
   xmlns:sodipodi="http://sodipodi.sourceforge.net/DTD/sodipodi-0.dtd"
   xmlns="http://www.w3.org/2000/svg"
   xmlns:svg="http://www.w3.org/2000/svg"><defs
   id="defs58" /><sodipodi:namedview
   id="namedview56"
   pagecolor="#ffffff"
   bordercolor="#666666"
   borderopacity="1.0"
   inkscape:showpageshadow="2"
   inkscape:pageopacity="0.0"
   inkscape:pagecheckerboard="0"
   inkscape:deskcolor="#d1d1d1"
   showgrid="false"
   inkscape:zoom="1.0827743"
   inkscape:cx="212.87908"
   inkscape:cy="187.01958"
   inkscape:window-width="1920"
   inkscape:window-height="1009"
   inkscape:window-x="0"
   inkscape:window-y="0"
   inkscape:window-maximized="1"
   inkscape:current-layer="Capa_1" />
<g
   id="g23">
	<g
   id="Fullscreen">
		<path
   d="M384.97,12.03c0-6.713-5.317-12.03-12.03-12.03H264.847c-6.833,0-11.922,5.39-11.934,12.223    c0,6.821,5.101,11.838,11.934,11.838h96.062l-0.193,96.519c0,6.833,5.197,12.03,12.03,12.03c6.833-0.012,12.03-5.197,12.03-12.03    l0.193-108.369c0-0.036-0.012-0.06-0.012-0.084C384.958,12.09,384.97,12.066,384.97,12.03z"
   id="path2" />
		<path
   d="M120.496,0H12.403c-0.036,0-0.06,0.012-0.096,0.012C12.283,0.012,12.247,0,12.223,0C5.51,0,0.192,5.317,0.192,12.03    L0,120.399c0,6.833,5.39,11.934,12.223,11.934c6.821,0,11.838-5.101,11.838-11.934l0.192-96.339h96.242    c6.833,0,12.03-5.197,12.03-12.03C132.514,5.197,127.317,0,120.496,0z"
   id="path4" />
		<path
   d="M120.123,360.909H24.061v-96.242c0-6.833-5.197-12.03-12.03-12.03S0,257.833,0,264.667v108.092    c0,0.036,0.012,0.06,0.012,0.084c0,0.036-0.012,0.06-0.012,0.096c0,6.713,5.317,12.03,12.03,12.03h108.092    c6.833,0,11.922-5.39,11.934-12.223C132.057,365.926,126.956,360.909,120.123,360.909z"
   id="path6" />
		<path
   d="M372.747,252.913c-6.833,0-11.85,5.101-11.838,11.934v96.062h-96.242c-6.833,0-12.03,5.197-12.03,12.03    s5.197,12.03,12.03,12.03h108.092c0.036,0,0.06-0.012,0.084-0.012c0.036-0.012,0.06,0.012,0.096,0.012    c6.713,0,12.03-5.317,12.03-12.03V264.847C384.97,258.014,379.58,252.913,372.747,252.913z"
   id="path8" />
	</g>
	<g
   id="g11">
	</g>
	<g
   id="g13">
	</g>
	<g
   id="g15">
	</g>
	<g
   id="g17">
	</g>
	<g
   id="g19">
	</g>
	<g
   id="g21">
	</g>
</g>
<g
   id="g25">
</g>
<g
   id="g27">
</g>
<g
   id="g29">
</g>
<g
   id="g31">
</g>
<g
   id="g33">
</g>
<g
   id="g35">
</g>
<g
   id="g37">
</g>
<g
   id="g39">
</g>
<g
   id="g41">
</g>
<g
   id="g43">
</g>
<g
   id="g45">
</g>
<g
   id="g47">
</g>
<g
   id="g49">
</g>
<g
   id="g51">
</g>
<g
   id="g53">
</g>
<g
   id="g1563"
   transform="matrix(4.11432,0,0,4.11432,82.884031,73.994585)">
	<path
   d="M 52.524,23.925 12.507,0.824 C 10.6,-0.276 8.131,-0.273 6.231,0.824 4.293,1.94 3.088,4.025 3.088,6.264 v 46.205 c 0,2.24 1.204,4.325 3.131,5.435 0.953,0.555 2.042,0.848 3.149,0.848 1.104,0 2.192,-0.292 3.141,-0.843 L 52.526,34.806 c 1.936,-1.119 3.138,-3.203 3.138,-5.439 -0.001,-2.233 -1.202,-4.317 -3.14,-5.442 z m -3,5.687 -40.02,23.104 C 9.422,52.763 9.324,52.768 9.225,52.711 9.141,52.662 9.088,52.569 9.088,52.469 V 6.263 c 0,-0.1 0.052,-0.192 0.14,-0.243 0.042,-0.025 0.09,-0.038 0.139,-0.038 0.051,0 0.099,0.013 0.142,0.038 l 40.01,23.098 c 0.089,0.052 0.145,0.147 0.145,0.249 -0.001,0.103 -0.053,0.194 -0.14,0.245 z"
   id="path1561" />
</g><g
   id="g1565"
   transform="matrix(4.11432,0,0,4.11432,69.368198,73.619567)">
</g><g
   id="g1567"
   transform="matrix(4.11432,0,0,4.11432,69.368198,73.619567)">
</g><g
   id="g1569"
   transform="matrix(4.11432,0,0,4.11432,69.368198,73.619567)">
</g><g
   id="g1571"
   transform="matrix(4.11432,0,0,4.11432,69.368198,73.619567)">
</g><g
   id="g1573"
   transform="matrix(4.11432,0,0,4.11432,69.368198,73.619567)">
</g><g
   id="g1575"
   transform="matrix(4.11432,0,0,4.11432,69.368198,73.619567)">
</g><g
   id="g1577"
   transform="matrix(4.11432,0,0,4.11432,69.368198,73.619567)">
</g><g
   id="g1579"
   transform="matrix(4.11432,0,0,4.11432,69.368198,73.619567)">
</g><g
   id="g1581"
   transform="matrix(4.11432,0,0,4.11432,69.368198,73.619567)">
</g><g
   id="g1583"
   transform="matrix(4.11432,0,0,4.11432,69.368198,73.619567)">
</g><g
   id="g1585"
   transform="matrix(4.11432,0,0,4.11432,69.368198,73.619567)">
</g><g
   id="g1587"
   transform="matrix(4.11432,0,0,4.11432,69.368198,73.619567)">
</g><g
   id="g1589"
   transform="matrix(4.11432,0,0,4.11432,69.368198,73.619567)">
</g><g
   id="g1591"
   transform="matrix(4.11432,0,0,4.11432,69.368198,73.619567)">
</g><g
   id="g1593"
   transform="matrix(4.11432,0,0,4.11432,69.368198,73.619567)">
</g></svg>
