<?xml version="1.0" encoding="UTF-8" standalone="no"?>
<!-- Generator: Adobe Illustrator 19.0.0, SVG Export Plug-In . SVG Version: 6.00 Build 0)  -->

<svg
   version="1.1"
   id="Layer_1"
   x="0px"
   y="0px"
   viewBox="0 0 512 512"
   style="enable-background:new 0 0 512 512;"
   xml:space="preserve"
   sodipodi:docname="hot-flame-svgrepo-com.svg"
   inkscape:version="1.1.1 (3bf5ae0d25, 2021-09-20)"
   xmlns:inkscape="http://www.inkscape.org/namespaces/inkscape"
   xmlns:sodipodi="http://sodipodi.sourceforge.net/DTD/sodipodi-0.dtd"
   xmlns="http://www.w3.org/2000/svg"
   xmlns:svg="http://www.w3.org/2000/svg"><defs
   id="defs51" /><sodipodi:namedview
   id="namedview49"
   pagecolor="#ffffff"
   bordercolor="#666666"
   borderopacity="1.0"
   inkscape:pageshadow="2"
   inkscape:pageopacity="0.0"
   inkscape:pagecheckerboard="0"
   showgrid="false"
   inkscape:zoom="1.625"
   inkscape:cx="255.69231"
   inkscape:cy="256.30769"
   inkscape:window-width="1920"
   inkscape:window-height="1017"
   inkscape:window-x="1912"
   inkscape:window-y="-8"
   inkscape:window-maximized="1"
   inkscape:current-layer="Layer_1" />
<path
   style="fill:#FF7452;"
   d="M370.809,129.314c-1.881-2.49-5.047-3.645-8.092-2.945c-3.041,0.699-5.389,3.12-5.994,6.181  l-7.04,35.615L262.999,4.216C261.628,1.623,258.934,0,256,0c-0.012,0-0.024,0-0.037,0c-2.947,0.014-5.644,1.664-6.997,4.282  L128.983,236.382l-14.606-46.253c-0.928-2.94-3.478-5.074-6.535-5.468c-3.057-0.397-6.066,1.02-7.711,3.627  c-33.52,53.118-50.515,96.856-50.515,129.996c0,54.487,21.561,104.155,60.713,139.853C148.421,492.871,200.155,512,256,512  s107.579-19.129,145.671-53.862c39.152-35.699,60.713-85.366,60.713-139.853C462.384,273.367,431.574,209.788,370.809,129.314z"
   id="path2" />
<path
   style="fill:#E24642;"
   d="M302.449,491.942c-55.845,0-107.579-19.129-145.671-53.862  c-39.152-35.699-60.713-85.366-60.713-139.853c0-23.44,8.514-52.188,25.351-85.802l-7.041-22.297  c-0.928-2.94-3.478-5.074-6.535-5.468c-3.057-0.397-6.066,1.02-7.711,3.627c-33.519,53.119-50.514,96.857-50.514,129.997  c0,54.487,21.561,104.155,60.713,139.853C148.421,492.871,200.155,512,256,512c40.953,0,79.686-10.299,112.459-29.484  C347.587,488.715,325.366,491.942,302.449,491.942z"
   id="path4" />
<path
   style="fill:#FFD652;"
   d="M125.097,354.177C125.097,281.882,256,134.598,256,134.598s130.903,147.284,130.903,219.579  S328.295,485.08,256,485.08S125.097,426.473,125.097,354.177z"
   id="path6" />
<path
   style="fill:#FB9D46;"
   d="M287.67,453.41c-72.295,0-130.903-58.608-130.903-130.903c0-50.286,63.321-136.836,101.883-184.884  c-1.702-1.958-2.65-3.026-2.65-3.026S125.097,281.882,125.097,354.177S183.705,485.08,256,485.08  c44.235,0,83.341-21.944,107.038-55.536C341.727,444.576,315.731,453.41,287.67,453.41z"
   id="path8" />

<g
   id="g18">
</g>
<g
   id="g20">
</g>
<g
   id="g22">
</g>
<g
   id="g24">
</g>
<g
   id="g26">
</g>
<g
   id="g28">
</g>
<g
   id="g30">
</g>
<g
   id="g32">
</g>
<g
   id="g34">
</g>
<g
   id="g36">
</g>
<g
   id="g38">
</g>
<g
   id="g40">
</g>
<g
   id="g42">
</g>
<g
   id="g44">
</g>
<g
   id="g46">
</g>
</svg>
