<?xml version="1.0" encoding="iso-8859-1"?>
<!-- Generator: Adobe Illustrator 19.0.0, SVG Export Plug-In . SVG Version: 6.00 Build 0)  -->
<svg version="1.1" id="Layer_1" xmlns="http://www.w3.org/2000/svg" xmlns:xlink="http://www.w3.org/1999/xlink" x="0px" y="0px"
	 viewBox="0 0 330 330" style="enable-background:new 0 0 330 330;" xml:space="preserve">
<g id="XMLID_352_">
	<path id="XMLID_439_" d="M315,0H15C6.716,0,0,6.716,0,15v300c0,8.284,6.716,15,15,15h300c8.284,0,15-6.716,15-15V15
		C330,6.716,323.284,0,315,0z M300,300H30V30h270V300z"/>
	<path id="XMLID_443_" d="M194.25,247.5c8.284,0,15-6.716,15-15v-135c0-8.284-6.716-15-15-15c-8.284,0-15,6.716-15,15v135
		C179.25,240.784,185.966,247.5,194.25,247.5z"/>
	<path id="XMLID_444_" d="M135.75,247.5c8.284,0,15-6.716,15-15v-135c0-8.284-6.716-15-15-15s-15,6.716-15,15v135
		C120.75,240.784,127.466,247.5,135.75,247.5z"/>
</g>
<g>
</g>
<g>
</g>
<g>
</g>
<g>
</g>
<g>
</g>
<g>
</g>
<g>
</g>
<g>
</g>
<g>
</g>
<g>
</g>
<g>
</g>
<g>
</g>
<g>
</g>
<g>
</g>
<g>
</g>
</svg>
