<?xml version="1.0" encoding="UTF-8" standalone="no"?>
<!-- Generator: Adobe Illustrator 19.0.0, SVG Export Plug-In . SVG Version: 6.00 Build 0)  -->

<svg
   xmlns:dc="http://purl.org/dc/elements/1.1/"
   xmlns:cc="http://creativecommons.org/ns#"
   xmlns:rdf="http://www.w3.org/1999/02/22-rdf-syntax-ns#"
   xmlns:svg="http://www.w3.org/2000/svg"
   xmlns="http://www.w3.org/2000/svg"
   xmlns:sodipodi="http://sodipodi.sourceforge.net/DTD/sodipodi-0.dtd"
   xmlns:inkscape="http://www.inkscape.org/namespaces/inkscape"
   version="1.1"
   id="Layer_1"
   x="0px"
   y="0px"
   viewBox="0 0 480 480"
   style="enable-background:new 0 0 480 480;"
   xml:space="preserve"
   sodipodi:docname="target-svgrepo-com.svg"
   inkscape:version="0.92.5 (2060ec1f9f, 2020-04-08)"><metadata
   id="metadata47"><rdf:RDF><cc:Work
       rdf:about=""><dc:format>image/svg+xml</dc:format><dc:type
         rdf:resource="http://purl.org/dc/dcmitype/StillImage" /></cc:Work></rdf:RDF></metadata><defs
   id="defs45" /><sodipodi:namedview
   pagecolor="#ffffff"
   bordercolor="#666666"
   borderopacity="1"
   objecttolerance="10"
   gridtolerance="10"
   guidetolerance="10"
   inkscape:pageopacity="0"
   inkscape:pageshadow="2"
   inkscape:window-width="1920"
   inkscape:window-height="1009"
   id="namedview43"
   showgrid="false"
   inkscape:zoom="0.49166667"
   inkscape:cx="-153.83081"
   inkscape:cy="108.85243"
   inkscape:window-x="1920"
   inkscape:window-y="0"
   inkscape:window-maximized="1"
   inkscape:current-layer="g6" />
<g
   id="g10">
	<g
   id="g8">
		<g
   id="g6">
			<path
   d="M 470,228.13 H 436.575 C 430.723,129.085 351.008,49.589 251.869,44.098 V 10 c 0,-5.523 -4.477,-10 -10,-10 -5.523,0 -10,4.477 -10,10 V 44.002 C 131.829,48.565 51.107,128.445 45.217,228.13 H 10 c -5.523,0 -10,4.477 -10,10 0,5.523 4.477,10 10,10 h 35.048 c 4.248,101.27 85.656,182.921 186.821,187.537 V 470 c 0,5.523 4.477,10 10,10 5.523,0 10,-4.477 10,-10 V 435.571 C 352.129,430.016 432.524,348.757 436.744,248.13 H 470 c 5.523,0 10,-4.477 10,-10 0,-5.523 -4.477,-10 -10,-10 z M 251.869,64.137 c 88.106,5.44 158.87,75.981 164.666,163.993 H 387.09 C 381.402,156.331 323.771,98.924 251.869,93.587 Z m -20,-0.122 v 29.45 C 159.057,97.913 100.431,155.693 94.691,228.13 H 65.257 C 71.096,139.478 142.858,68.539 231.869,64.015 Z m 0,351.638 C 141.733,411.072 69.278,338.371 65.061,248.13 h 29.405 c 4.159,74.035 63.466,133.568 137.403,138.087 z m 9.49153,-71.86736 c -5.523,0 -9.49153,4.477 -9.49153,10 V 366.178 C 170.49042,361.21253 118.609,311.134 114.506,248.13 h 13.23378 c 5.523,0 9.49153,-4.477 9.49153,-10 0,-5.523 -5.4994,-10.75362 -11.01695,-10.50847 L 114.77,228.13 c 7.17142,-60.89253 55.321,-110.25 117.099,-114.626 l 0.50847,12.71036 c 0.22077,5.51858 3.46006,10.50847 8.98306,10.50847 5.523,0 9.79324,-3.97239 10,-9.49152 L 251.869,113.658 c 61.88195,2.69963 109.557,53.71 115.143,114.472 l -13.73583,0.50847 c -5.523,0 -12.0339,3.46006 -12.0339,8.98306 0,5.523 6.5109,10.50847 12.0339,10.50847 H 367.276 c -4.56847,58.79968 -53.42,112.553 -115.407,117.895 l -0.50847,-13.25631 c 0,-5.523 -4.477,-8.98305 -10,-8.98305 z M 251.869,415.532 v -29.437 c 73.023,-5.422 131.324,-64.572 135.446,-137.965 h 29.416 c -4.187,89.597 -75.634,161.891 -164.862,167.402 z"
   id="path2"
   inkscape:connector-curvature="0"
   sodipodi:nodetypes="sccsssccsssccsssccssscccccccccccccccsscccsscccsscccsscccsccccc"
   style="stroke:none;stroke-opacity:1;fill:#ed4444;fill-opacity:1" />
			
		</g>
	</g>
</g>
<g
   id="g12">
</g>
<g
   id="g14">
</g>
<g
   id="g16">
</g>
<g
   id="g18">
</g>
<g
   id="g20">
</g>
<g
   id="g22">
</g>
<g
   id="g24">
</g>
<g
   id="g26">
</g>
<g
   id="g28">
</g>
<g
   id="g30">
</g>
<g
   id="g32">
</g>
<g
   id="g34">
</g>
<g
   id="g36">
</g>
<g
   id="g38">
</g>
<g
   id="g40">
</g>
</svg>