<?xml version="1.0" encoding="UTF-8" standalone="no"?>
<!-- Created with Inkscape (http://www.inkscape.org/) -->

<svg
   width="55.014072mm"
   height="51.782131mm"
   viewBox="0 0 55.014072 51.782131"
   version="1.1"
   id="svg5"
   inkscape:version="1.1.2 (1:1.1+202202050950+0a00cf5339)"
   sodipodi:docname="module-regular.svg"
   xmlns:inkscape="http://www.inkscape.org/namespaces/inkscape"
   xmlns:sodipodi="http://sodipodi.sourceforge.net/DTD/sodipodi-0.dtd"
   xmlns="http://www.w3.org/2000/svg"
   xmlns:svg="http://www.w3.org/2000/svg">
  <sodipodi:namedview
     id="namedview7"
     pagecolor="#ffffff"
     bordercolor="#666666"
     borderopacity="1.0"
     inkscape:pageshadow="2"
     inkscape:pageopacity="0.0"
     inkscape:pagecheckerboard="0"
     inkscape:document-units="mm"
     showgrid="false"
     inkscape:zoom="1.0739943"
     inkscape:cx="154.09766"
     inkscape:cy="142.92441"
     inkscape:window-width="1920"
     inkscape:window-height="1009"
     inkscape:window-x="0"
     inkscape:window-y="0"
     inkscape:window-maximized="1"
     inkscape:current-layer="layer1" />
  <defs
     id="defs2" />
  <g
     inkscape:label="Calque 1"
     inkscape:groupmode="layer"
     id="layer1"
     transform="translate(-63.020869,-99.667685)">
    <path
       d="m 73.604199,126.14392 -10.58333,4.40981 v 12.34733 l 10.58333,4.40954 10.583338,-4.40954 v -12.34733 z m 7.14428,4.88739 -7.14428,2.97603 -7.14428,-2.97603 7.14428,-2.97709 z m -15.96363,1.21258 7.9375,3.30757 v 9.48108 0 l -7.9375,-3.30729 z m 17.638708,9.48162 -7.937498,3.3073 v 0 -9.48109 l 7.937498,-3.30756 z"
       id="path9-3"
       style="stroke-width:0.264583" />
    <path
       d="m 90.634411,99.667685 -10.583326,4.409805 v 12.34733 l 10.583326,4.40953 10.583339,-4.40953 V 104.0775 Z m 7.14428,4.887395 -7.14428,2.97602 -7.144276,-2.97602 7.144276,-2.9771 z m -15.963626,1.21258 7.937496,3.30755 v 9.48109 0 l -7.937496,-3.30729 z m 17.638706,9.48161 -7.9375,3.3073 v 0 -9.48109 l 7.9375,-3.30755 z"
       id="path9-3-9"
       style="stroke-width:0.264583" />
    <path
       d="m 107.4516,126.04352 -10.583335,4.40981 v 12.34731 l 10.583335,4.40954 10.58334,-4.40954 v -12.34731 z m 7.14428,4.88738 -7.14428,2.97603 -7.14428,-2.97603 7.14428,-2.97709 z m -15.963639,1.21258 7.937509,3.30756 v 9.48108 0 l -7.937509,-3.30729 z m 17.638719,9.48161 -7.9375,3.3073 v 0 -9.48108 l 7.9375,-3.30756 z"
       id="path9-7"
       style="stroke-width:0.264583" />
    <path
       style="fill:none;stroke:#000000;stroke-width:1.865;stroke-linecap:butt;stroke-linejoin:miter;stroke-miterlimit:4;stroke-dasharray:none;stroke-opacity:1"
       d="m 69.313627,129.27038 0.01127,-13.90477 11.397488,-5.42816"
       id="path2740" />
    <path
       style="fill:none;stroke:#000000;stroke-width:1.865;stroke-linecap:butt;stroke-linejoin:miter;stroke-miterlimit:4;stroke-dasharray:none;stroke-opacity:1"
       d="m 112.23555,129.56766 -0.0113,-13.90477 -11.39749,-5.42816"
       id="path2740-3" />
    <path
       style="fill:none;stroke:#000000;stroke-width:1.865;stroke-linecap:butt;stroke-linejoin:miter;stroke-miterlimit:4;stroke-dasharray:none;stroke-opacity:1"
       d="m 78.731715,144.17958 11.007767,6.20753 11.784938,-6.2449"
       id="path4416" />
  </g>
</svg>
