<?xml version="1.0" encoding="UTF-8" standalone="no"?>
<!-- Generator: Adobe Illustrator 16.0.0, SVG Export Plug-In . SVG Version: 6.00 Build 0)  -->

<svg
   xmlns:osb="http://www.openswatchbook.org/uri/2009/osb"
   xmlns:dc="http://purl.org/dc/elements/1.1/"
   xmlns:cc="http://creativecommons.org/ns#"
   xmlns:rdf="http://www.w3.org/1999/02/22-rdf-syntax-ns#"
   xmlns:svg="http://www.w3.org/2000/svg"
   xmlns="http://www.w3.org/2000/svg"
   xmlns:xlink="http://www.w3.org/1999/xlink"
   xmlns:sodipodi="http://sodipodi.sourceforge.net/DTD/sodipodi-0.dtd"
   xmlns:inkscape="http://www.inkscape.org/namespaces/inkscape"
   version="1.1"
   id="Capa_1"
   x="0px"
   y="0px"
   width="193.469px"
   height="193.469px"
   viewBox="0 0 193.469 193.469"
   style="enable-background:new 0 0 193.469 193.469;"
   xml:space="preserve"
   sodipodi:docname="top50.svg"
   inkscape:version="0.92.5 (2060ec1f9f, 2020-04-08)"
   inkscape:export-filename="/home/guillaume/Documents/Code/topmaths/src/assets/img/gvalmont/top1.png"
   inkscape:export-xdpi="96"
   inkscape:export-ydpi="96"
   inkscape:label="numero"><metadata
   id="metadata41"><rdf:RDF><cc:Work
       rdf:about=""><dc:format>image/svg+xml</dc:format><dc:type
         rdf:resource="http://purl.org/dc/dcmitype/StillImage" /><dc:title /></cc:Work></rdf:RDF></metadata><defs
   id="defs39"><linearGradient
   inkscape:collect="always"
   id="linearGradient2368"><stop
     style="stop-color:#f0f0f0;stop-opacity:1"
     offset="0"
     id="stop2364" /><stop
     style="stop-color:#f0f0f0;stop-opacity:1"
     offset="1"
     id="stop2366" /></linearGradient><linearGradient
   id="linearGradient2354"
   osb:paint="solid"><stop
     style="stop-color:#cc862d;stop-opacity:1;"
     offset="0"
     id="stop2352" /></linearGradient><radialGradient
   inkscape:collect="always"
   xlink:href="#linearGradient2368"
   id="radialGradient2372"
   cx="96.734146"
   cy="96.734123"
   fx="96.734146"
   fy="96.734123"
   r="96.734955"
   gradientTransform="matrix(-0.00140568,-0.95133291,0.47516025,-7.0209434e-4,51.649236,192.21213)"
   gradientUnits="userSpaceOnUse" />
	
</defs><sodipodi:namedview
   pagecolor="#ffffff"
   bordercolor="#666666"
   borderopacity="1"
   objecttolerance="10"
   gridtolerance="10"
   guidetolerance="10"
   inkscape:pageopacity="0"
   inkscape:pageshadow="2"
   inkscape:window-width="1920"
   inkscape:window-height="1015"
   id="namedview37"
   showgrid="false"
   inkscape:zoom="2.7612834"
   inkscape:cx="60.113114"
   inkscape:cy="75.899544"
   inkscape:window-x="1920"
   inkscape:window-y="0"
   inkscape:window-maximized="1"
   inkscape:current-layer="Capa_1" />
















<path
   style="display:inline;fill:url(#radialGradient2372);fill-opacity:1;stroke:#000000;stroke-width:1.851;stroke-opacity:1;stroke-miterlimit:4;stroke-dasharray:none"
   inkscape:connector-curvature="0"
   id="path2"
   d="m 188.31259,59.640363 c -1.03695,-0.776289 -2.44397,-0.787705 -3.499,-0.04091 L 137.0747,93.611544 c -1.11211,0.79151 -1.53545,2.224219 -1.04361,3.48759 0.45759,1.175849 0.684,2.358357 0.684,3.521836 0,5.31796 -4.32095,9.63987 -9.63891,9.63987 -5.31225,0 -9.63987,-4.32191 -9.63987,-9.63987 0,-5.085829 4.00892,-9.291676 9.11854,-9.569466 0.98463,-0.05518 1.87698,-0.593632 2.38024,-1.436514 0.5042,-0.854298 0.56223,-1.891252 0.13413,-2.795019 L 100.14867,25.847078 c -0.984626,-2.08247 -4.379937,-2.08247 -5.364567,0 l -28.94053,61.022365 c -0.408123,0.871422 -0.368167,1.89696 0.113208,2.74555 0.480424,0.849541 1.347089,1.387045 2.314596,1.48313 5.004968,0.436662 8.773202,4.541668 8.773202,9.522847 0,5.31796 -4.323813,9.63987 -9.638916,9.63987 -5.315103,0 -9.638916,-4.32191 -9.638916,-9.63987 0,-0.943718 0.182657,-1.95784 0.561287,-3.087073 0.409074,-1.228172 -0.01142,-2.580969 -1.054078,-3.333474 L 10.17151,59.622288 C 9.1231402,58.857415 7.6923342,58.851707 6.6553802,59.627988 5.6127177,60.40713 5.1893741,61.759927 5.6127177,62.988099 L 34.90429,147.31149 c 10.551245,-8.70661 43.56729,-11.2324 62.573994,-11.2324 19.002886,0 52.010376,2.52484 62.570176,11.2324 l 29.28872,-84.323383 c 0.43,-1.222464 0.0124,-2.569553 -1.02459,-3.347744 z M 100.17245,56.059542 87.772772,82.182221 c 4.57877,5.031605 7.084584,11.495919 7.084584,18.427339 0,1.63344 -1.329014,2.96531 -2.96626,2.96531 -1.639148,0 -2.966259,-1.33187 -2.966259,-2.96531 0,-6.036214 -2.398313,-11.589151 -6.751617,-15.663714 -0.935161,-0.872373 -1.20534,-2.270834 -0.651664,-3.426705 L 94.801227,53.502356 c 0.706841,-1.483129 2.499157,-2.100545 3.949937,-1.407974 1.490736,0.718257 2.118616,2.487738 1.421286,3.96516 z m 57.38066,97.275798 c 0,-3.38294 -20.4318,-11.30756 -60.057706,-11.30756 -39.631621,0 -60.065322,7.92462 -60.065322,11.30756 0,0.27874 -0.08943,0.52228 -0.154117,0.76582 l 2.365968,6.81155 c 0.02283,0.0637 0.09038,0.0932 0.113209,0.14461 1.042662,11.7366 38.015304,14.89313 57.739312,14.89313 19.721146,0 56.686176,-3.14606 57.728846,-14.89313 0.0228,-0.058 0.0932,-0.0989 0.11606,-0.14461 l 2.36311,-6.81155 c -0.0685,-0.24354 -0.14936,-0.48708 -0.14936,-0.76582 z m -60.057706,16.68354 c -32.528961,0 -51.35586,-6.25026 -51.909537,-9.44865 0.515623,-3.20885 19.313031,-9.48289 51.909537,-9.48289 32.599356,0 51.385346,6.27404 51.900976,9.46006 -0.54988,3.22122 -19.37677,9.47148 -51.900976,9.47148 z"
   inkscape:label="couronne" /><g
   aria-label="50"
   style="font-style:normal;font-variant:normal;font-weight:normal;font-stretch:normal;font-size:67.73914337px;line-height:1.25;font-family:Impact;-inkscape-font-specification:Impact;letter-spacing:0px;word-spacing:0px;display:inline;fill:#ffffff;fill-opacity:1;stroke:#000000;stroke-width:5.08043575;stroke-miterlimit:4;stroke-dasharray:none;stroke-opacity:1"
   id="text1334"><path
     d="m 90.06779,103.42373 v 13.70659 H 63.554266 v 14.55334 q 4.974593,-5.87426 12.806931,-5.87426 8.837842,0 13.336144,4.9746 4.551224,4.92167 4.551224,18.99871 v 12.2248 q 0,9.10244 -0.899661,13.38906 -0.846739,4.2337 -3.704484,7.88526 -2.857745,3.59864 -7.991102,5.55673 -5.080436,1.90516 -12.436483,1.90516 -8.255709,0 -14.553332,-2.85774 -6.297624,-2.91067 -8.943684,-8.62616 -2.64606,-5.71549 -2.64606,-17.67568 v -4.65707 h 21.380167 v 5.34504 q 0,8.30863 0.582133,11.80143 0.582134,3.4928 4.022012,3.4928 1.587636,0 2.540218,-1.0055 1.005503,-1.0055 1.058424,-2.16977 0.105842,-1.16427 0.211685,-10.10795 v -16.98771 q 0,-4.81583 -1.005503,-6.56223 -1.005503,-1.7464 -3.334036,-1.7464 -1.481794,0 -2.487297,0.89966 -1.005503,0.89966 -1.32303,1.95809 -0.264606,1.0055 -0.264606,4.76291 H 43.285444 l 0.89966,-43.18371 z"
     style="font-style:normal;font-variant:normal;font-weight:normal;font-stretch:normal;font-size:108.38262939px;font-family:Impact;-inkscape-font-specification:Impact;fill:#ffffff;fill-opacity:1;stroke:#000000;stroke-width:5.08043575;stroke-miterlimit:4;stroke-dasharray:none;stroke-opacity:1"
     id="path3065"
     inkscape:connector-curvature="0" /><path
     d="M 151.9856,132.42455 V 161.002 q 0,9.73751 -1.05842,14.18289 -1.05843,4.44538 -4.39246,8.30863 -3.33404,3.86324 -8.04403,5.55672 -4.70999,1.69348 -10.53132,1.69348 -7.67357,0 -12.75401,-1.7464 -5.08043,-1.79932 -8.09694,-5.55672 -3.01651,-3.75741 -4.28662,-7.88526 -1.27011,-4.18078 -1.27011,-13.23031 v -29.90048 q 0,-11.80143 2.01101,-17.67568 2.06392,-5.87425 8.09694,-9.41997 6.08594,-3.54572 14.7121,-3.54572 7.03852,0 12.59524,2.48729 5.55673,2.43438 8.30863,5.9801 2.7519,3.54572 3.70449,7.9911 1.0055,4.44538 1.0055,14.18288 z m -21.38017,-7.19728 q 0,-6.82684 -0.68797,-8.52031 -0.63506,-1.7464 -3.06943,-1.7464 -2.38146,0 -3.17528,1.85224 -0.74089,1.79932 -0.74089,8.41447 v 41.80775 q 0,7.46189 0.68797,8.99661 0.7409,1.53471 3.12235,1.53471 2.38146,0 3.12236,-1.79932 0.74089,-1.79932 0.74089,-8.09694 z"
     style="font-style:normal;font-variant:normal;font-weight:normal;font-stretch:normal;font-size:108.38262939px;font-family:Impact;-inkscape-font-specification:Impact;fill:#ffffff;fill-opacity:1;stroke:#000000;stroke-width:5.08043575;stroke-miterlimit:4;stroke-dasharray:none;stroke-opacity:1"
     id="path3067"
     inkscape:connector-curvature="0" /></g>
</svg>